<?xml version="1.0" encoding="UTF-8"?>
<svg id="Layer_1" xmlns="http://www.w3.org/2000/svg" version="1.1" viewBox="0 0 450 214.8">
  <!-- Generator: Adobe Illustrator 29.5.1, SVG Export Plug-In . SVG Version: 2.1.0 Build 141)  -->
  <defs>
    <style>
      .st0, .st1 {
        fill-rule: evenodd;
      }

      .st0, .st2 {
        fill: #fff;
      }

      .st1, .st3 {
        fill: #ef4237;
      }
    </style>
  </defs>
  <path class="st0" d="M273.2,116.2v-17.5c0-.2.2-.4.4-.4h5.5c.2,0,.3-.1.3-.3v-5.7c0-.2-.1-.3-.3-.3h-5.4c-.2,0-.4-.2-.4-.4v-8c0-.2-.1-.3-.3-.3h-5.7c-.2,0-.3.1-.3.3v34.3c0,2.7,2.2,5,5,5h7.2c.2,0,.3-.1.3-.3v-5.7c0-.2-.1-.3-.3-.3h-5.5c-.2,0-.4-.2-.4-.4h0Z"/>
  <path class="st0" d="M150.7,108.6c0-.5-.1-1.1-.1-1.6s0-1.1.1-1.6c.8-4.6,4.8-8,9.5-8s5,1,6.8,2.8l.7.7c.1.1.3.1.4,0l4-4c.1-.1.1-.3,0-.4l-.7-.7c-3-3-7-4.7-11.3-4.7-8,0-14.8,6-15.8,14,0,.7-.1,1.3-.1,2s0,1.3.1,2c1,8,7.8,14,15.8,14s8.3-1.7,11.3-4.7l.7-.7c.1-.1.1-.3,0-.4l-4-4c-.1-.1-.3-.1-.4,0l-.7.7c-1.8,1.8-4.2,2.8-6.8,2.8-4.7,0-8.7-3.4-9.5-8h0Z"/>
  <path class="st0" d="M309.6,113.2l-9.3-21c0-.1-.2-.2-.3-.2h-6.3c-.1,0-.2,0-.3.2s0,.2,0,.3l13.5,30.3c0,.1.2.2.3.2h5.3c.1,0,.2,0,.3-.2l13.7-30.3c0-.1,0-.2,0-.3s-.1-.2-.3-.2h-6.3c-.1,0-.2,0-.3.2l-9.5,21c0,.1-.2.2-.3.2s-.3,0-.3-.2h0Z"/>
  <path class="st0" d="M176.2,122.6c0,.2.1.3.3.3h5.7c.2,0,.3-.1.3-.3v-14.7c0-.5,0-1.1.1-1.6.8-4.6,4.8-8,9.5-8h1c.2,0,.3-.1.3-.3v-5.7c0-.2-.1-.3-.3-.3h-1c-8,0-14.8,6-15.8,14,0,.7-.1,1.3-.1,2v14.7h0Z"/>
  <path class="st0" d="M283.6,92c-.2,0-.3.1-.3.3v30.3c0,.2.1.3.3.3h5.7c.2,0,.3-.1.3-.3v-30.3c0-.2-.1-.3-.3-.3h-5.7ZM286.5,81.5c-2.1,0-3.8,1.7-3.8,3.8s1.7,3.8,3.8,3.8,3.8-1.7,3.8-3.8-1.7-3.8-3.8-3.8h0Z"/>
  <path class="st0" d="M245.1,91.1c-8,1-14,7.8-14,15.8s6,14.8,14,15.8c.7,0,1.3.1,2,.1s1.3,0,2-.1c1.4-.2,2.8-.5,4.1-1.1.1,0,.2-.2.2-.3v-6.5c0-.1,0-.2-.2-.3-.1,0-.2,0-.3,0-1.2.9-2.7,1.6-4.2,1.8-.5,0-1.1.1-1.6.1s-1.1,0-1.6-.1h-.1c-4.6-.8-7.9-4.8-7.9-9.5s3.4-8.7,8-9.5c.5,0,1.1-.1,1.6-.1s1.1,0,1.6.1h.1c4.6.8,7.9,4.8,7.9,9.5v15.1c0,.2.1.3.3.3h5.7c.2,0,.3-.1.3-.3v-15.1c0-8-6-14.8-14-15.8-.7,0-1.3-.1-2-.1s-1.3,0-2,.1h0Z"/>
  <path class="st0" d="M348.7,113.8c-1,1.1-2.3,1.8-3.7,2.3,0,0,0,0,0,0-1,.3-2,.5-3,.5-2.2,0-4.3-.8-6-2.1-1.2-1-2.3-2.3-2.9-3.8,0,0,0,0,0,0-.5-1.1-.7-2.3-.7-3.6s.2-2.5.7-3.6c0,0,0,0,0,0,.6-1.5,1.6-2.8,2.9-3.8h0c1.6-1.3,3.7-2.1,6-2.1s4.3.8,6,2.1c1.2,1,2.2,2.3,2.9,3.8,0,0,0,0,0,0,0,.2.1.3.2.5h-15.4c-.3,1-.5,2.1-.5,3.2s.2,2.2.5,3.2h21.7c.2,0,.3-.1.3-.3v-.9c.2-.7.2-1.3.2-2s0-1.3-.1-2c-1-8-7.8-14-15.8-14s-14.8,6-15.8,14c0,.7-.1,1.3-.1,2s0,1.3.1,2c1,8,7.8,14,15.8,14s8.3-1.7,11.3-4.7l.7-.7c.1-.1.1-.3,0-.4l-4-4c-.1-.1-.3-.1-.5,0l-.7.7h0Z"/>
  <path class="st0" d="M218.1,113.8c-1.1,1.1-2.3,1.8-3.7,2.3,0,0,0,0,0,0-1,.3-2,.5-3,.5-2.2,0-4.3-.8-6-2.1-1.2-1-2.3-2.3-2.9-3.8,0,0,0,0,0,0-.5-1.1-.7-2.3-.7-3.6s.2-2.5.7-3.6c0,0,0,0,0,0,.6-1.5,1.6-2.8,2.9-3.8h0c1.6-1.3,3.7-2.1,6-2.1s4.3.8,6,2.1c1.2,1,2.2,2.3,2.9,3.8,0,0,0,0,0,0,0,.2.1.3.2.5h-15.4c-.3,1-.5,2.1-.5,3.2s.2,2.2.5,3.2h21.7c.2,0,.3-.1.3-.3v-.9c.2-.7.2-1.3.2-2s0-1.3-.1-2c-1-8-7.8-14-15.8-14s-14.8,6-15.8,14c0,.7-.1,1.3-.1,2s0,1.3.1,2c1,8,7.8,14,15.8,14s8.3-1.7,11.3-4.7l.7-.7c.1-.1.1-.3,0-.4l-4-4c-.1-.1-.3-.1-.4,0l-.7.7h0Z"/>
  <path class="st0" d="M279.4,68.8v-22.8c0-.3.2-.5.5-.5h7.1c.2,0,.4-.2.4-.4v-7.5c0-.2-.2-.4-.4-.4h-7.1c-.3,0-.5-.2-.5-.5v-11.4c0-.2-.2-.4-.4-.4h-7.4c-.2,0-.4.2-.4.4v45.8c0,3.6,2.9,6.5,6.5,6.5h9.4c.2,0,.4-.2.4-.4v-7.4c0-.2-.2-.4-.4-.4h-7.1c-.3,0-.5-.2-.5-.5h0Z"/>
  <path class="st0" d="M410.5,69v-22.8c0-.3.2-.5.5-.5h7.1c.2,0,.4-.2.4-.4v-7.5c0-.2-.2-.4-.4-.4h-7.1c-.3,0-.5-.2-.5-.5v-11.4c0-.2-.2-.4-.4-.4h-7.4c-.2,0-.4.2-.4.4v45.8c0,3.6,2.9,6.5,6.5,6.5h9.4c.2,0,.4-.2.4-.4v-7.4c0-.2-.2-.4-.4-.4h-7.1c-.3,0-.5-.2-.5-.5h0Z"/>
  <path class="st0" d="M369.7,59c-.1-.7-.2-1.4-.2-2.1s0-1.4.2-2.1c1-6.1,6.3-10.5,12.4-10.5s6.5,1.3,8.9,3.7l1,1c.2.2.4.2.6,0l5.3-5.3c.2-.2.2-.4,0-.6l-1-1c-3.9-3.9-9.2-6.1-14.8-6.1-10.5,0-19.4,7.8-20.7,18.3-.1.9-.2,1.7-.2,2.6s0,1.7.2,2.6c1.3,10.4,10.2,18.3,20.7,18.3s10.8-2.2,14.8-6.1l1-1c.2-.2.2-.4,0-.6l-5.3-5.3c-.2-.2-.4-.2-.6,0l-1,1c-2.4,2.4-5.5,3.7-8.9,3.7-6.1,0-11.4-4.4-12.4-10.5h0Z"/>
  <path class="st0" d="M243.4,48.2c0-.3,0-.6,0-.9.2-1,1-1.7,2.1-1.7h20.9c.2,0,.4-.2.4-.4v-7.5c0-.2-.2-.4-.4-.4h-20.9c-3.8,0-7.4,2.4-9.2,5.7-.4.8-.8,1.7-1,2.6-.2,1-.3,2.1-.3,3.2.1,2.5,1.2,4.5,2.9,6.3.9,1,2,1.7,3.2,2.3l17.8,8.1c.6.3,1.1.8,1.2,1.5,0,.3,0,.6,0,.9-.2,1-1,1.7-2.1,1.7h-20.9c-.2,0-.4.2-.4.4v7.5c0,.2.2.4.4.4h20.9c3.8,0,7.4-2.4,9.2-5.7.4-.8.8-1.7,1-2.6.2-1,.3-2.1.3-3.2-.1-2.5-1.2-4.5-2.9-6.3-.9-1-2-1.7-3.2-2.3l-17.8-8.1c-.6-.3-1.1-.8-1.2-1.5h0Z"/>
  <path class="st0" d="M291.7,77.4c0,.2.2.4.4.4h7.4c.2,0,.4-.2.4-.4v-19.3c0-.7,0-1.4.2-2.1,1-6.1,6.3-10.5,12.4-10.5h1.4c.2,0,.4-.2.4-.4v-7.4c0-.2-.2-.4-.4-.4h-1.4c-10.5,0-19.4,7.8-20.7,18.3-.1.9-.2,1.7-.2,2.6v19.3h0Z"/>
  <path class="st0" d="M208.5,36.2c-1.9.2-3.7.7-5.4,1.4-.2,0-.3.2-.3.4v8.5c0,.2,0,.3.2.4.1,0,.3,0,.4,0,1.6-1.2,3.5-2,5.5-2.4.7-.1,1.4-.2,2.1-.2s1.4,0,2.1.2h.2c6,1.1,10.3,6.3,10.3,12.4s-4.4,11.4-10.5,12.4c-.7.1-1.4.2-2.1.2s-1.4,0-2.1-.2h-.2c-6-1.1-10.3-6.3-10.3-12.4v-31.6c0-.2-.2-.4-.4-.4h-7.4c-.2,0-.4.2-.4.4v31.6c0,10.5,7.8,19.4,18.3,20.7.9.1,1.7.2,2.6.2s1.7,0,2.6-.2c10.4-1.3,18.3-10.2,18.3-20.7s-7.8-19.4-18.3-20.7c-.9-.1-1.7-.2-2.6-.2s-1.7,0-2.6.2h0Z"/>
  <path class="st0" d="M162.5,36.2c-10.4,1.3-18.3,10.2-18.3,20.7s7.8,19.4,18.3,20.7c.9.1,1.7.2,2.6.2s1.7,0,2.6-.2c1.9-.2,3.7-.7,5.4-1.4.2,0,.3-.2.3-.4v-8.5c0-.2,0-.3-.2-.4-.1,0-.3,0-.4,0-1.6,1.2-3.5,2.1-5.5,2.4-.7.1-1.4.2-2.1.2s-1.4,0-2.1-.2h-.2c-6-1.1-10.3-6.3-10.3-12.4s4.4-11.4,10.5-12.4c.7-.1,1.4-.2,2.1-.2s1.4,0,2.1.2h.2c6,1.1,10.3,6.3,10.3,12.4v19.8c0,.2.2.4.4.4h7.4c.2,0,.4-.2.4-.4v-19.8c0-10.5-7.8-19.4-18.3-20.7-.9-.1-1.7-.2-2.6-.2s-1.7,0-2.6.2h0Z"/>
  <path class="st0" d="M333.5,36.2c-10.4,1.3-18.3,10.2-18.3,20.7s7.8,19.4,18.3,20.7c.9.1,1.7.2,2.6.2s1.7,0,2.6-.2c1.9-.2,3.7-.7,5.4-1.4.2,0,.3-.2.3-.4v-8.5c0-.2,0-.3-.2-.4-.1,0-.3,0-.4,0-1.6,1.2-3.5,2.1-5.5,2.4-.7.1-1.4.2-2.1.2s-1.4,0-2.1-.2h-.2c-6-1.1-10.3-6.3-10.3-12.4s4.5-11.4,10.5-12.4c.7-.1,1.4-.2,2.1-.2s1.4,0,2.1.2h.2c6,1.1,10.3,6.3,10.3,12.4v19.8c0,.2.2.4.4.4h7.4c.2,0,.4-.2.4-.4v-19.8c0-10.5-7.8-19.4-18.3-20.7-.9-.1-1.7-.2-2.6-.2s-1.7,0-2.6.2h0Z"/>
  <path class="st1" d="M77.4,92c-4.3,0-8.5.3-12.6.8l12.6-41.9,10.6,35.2c8.9.9,17.6,2.9,25.9,6.1l-20.3-67.3h-32.6l-22.6,75.1c-3.4,1.5-6.8,3.2-10,5l11.7,20.2c11-6.3,23.7-10,37.2-10s26.3,3.6,37.2,10l11.7-20.2c-14.4-8.3-31.1-13.1-48.9-13.1h0Z"/>
  <path class="st3" d="M32.1,194.7v-29.4h7.9v29.4h-7.9Z"/>
  <path class="st3" d="M58.5,195.1c-2.8,0-5.3-.7-7.4-2-2.1-1.3-3.7-3.2-4.9-5.5s-1.7-5-1.7-8,.6-5.6,1.7-7.8c1.1-2.2,2.8-3.9,4.9-5.1,2.1-1.2,4.6-1.8,7.4-1.8s4.4.5,6.2,1.4c1.8.9,3.3,2.2,4.5,3.8s1.8,3.5,2,5.6h-8.2c-.2-.9-.4-1.7-.8-2.4-.4-.7-.9-1.2-1.6-1.5s-1.4-.5-2.3-.5-1.9.3-2.6.8-1.4,1.4-1.8,2.6-.7,2.9-.7,5.1c0,3.3.5,5.6,1.4,6.9s2.2,2.1,3.7,2.1,1.7-.2,2.3-.7,1.2-1.1,1.6-1.8c.4-.8.7-1.6.8-2.5h8.2c-.2,1.5-.6,3-1,4.3-.5,1.4-1.2,2.6-2.1,3.6s-2.2,1.9-3.7,2.5-3.5.9-5.8.9h0Z"/>
  <path class="st3" d="M88.9,195.1c-2.9,0-5.4-.6-7.6-1.9-2.1-1.2-3.8-3-4.9-5.2s-1.7-4.9-1.7-7.9.6-5.7,1.8-8,2.8-4,5-5.3,4.6-1.9,7.5-1.9,5.3.6,7.5,1.9c2.1,1.3,3.8,3,5,5.3s1.8,4.9,1.8,8-.6,5.7-1.7,7.9c-1.2,2.2-2.8,4-4.9,5.2s-4.6,1.9-7.5,1.9h0ZM88.9,188.7c1.1,0,2.1-.3,2.9-.8s1.5-1.5,2-2.7c.5-1.3.7-2.9.7-5.1s-.2-3.9-.7-5.2-1.1-2.2-2-2.8-1.8-.9-2.9-.9-2.1.3-2.9.9-1.5,1.5-2,2.8c-.5,1.3-.7,3-.7,5.2s.2,3.8.7,5.1,1.1,2.2,2,2.7,1.8.8,2.9.8Z"/>
  <path class="st3" d="M107.5,194.7v-29.4h8l11.4,16.4v-16.4h7.9v29.4h-7.1l-12.3-17.5v17.5h-7.9Z"/>
  <path class="st2" d="M150,194.7v-29.4h10.6c3.8,0,6.7.7,8.6,2s2.8,3.2,2.8,5.7-.4,2.7-1.1,3.8-2.1,2-4,2.8c1.2.3,2.2.7,3,1.3s1.3,1.1,1.7,1.8.7,1.3.8,2c.2.7.2,1.4.2,2.1,0,2.7-.9,4.7-2.8,6s-4.8,1.9-8.8,1.9h-11.1,0ZM155.9,177.5h5.7c.6,0,1.2,0,1.8-.2s1.1-.4,1.5-.7c.4-.3.8-.7,1-1.1s.4-1,.4-1.7c0-1.3-.5-2.2-1.4-2.9s-2.2-1-3.7-1h-5.2v7.5h0ZM155.9,190.1h5.3c1.8,0,3.1-.4,4.1-1.1.9-.7,1.4-1.7,1.4-2.9s-.2-1.6-.7-2.2c-.4-.6-1.1-1-1.8-1.3-.8-.3-1.6-.4-2.6-.4h-5.7v7.9h0Z"/>
  <path class="st2" d="M177,194.7v-21h5.7v5c.3-1.1.8-2,1.4-2.8.6-.8,1.4-1.4,2.2-1.9.9-.5,1.9-.7,3-.7s.4,0,.5,0c.2,0,.3,0,.4,0v5.6c-.1,0-.3,0-.4-.1s-.3,0-.5,0c-1.2,0-2.2,0-3,.1s-1.5.4-2,.8c-.5.4-.9.9-1.1,1.4s-.3,1.2-.3,1.9v11.5h-5.9Z"/>
  <path class="st2" d="M199.6,195.1c-1.3,0-2.5-.2-3.6-.7s-1.9-1.2-2.5-2.2c-.6-.9-.9-2.1-.9-3.5,0-2.3.9-4.1,2.6-5.2,1.7-1.2,4.4-1.8,8.1-1.9h2.6v-1.3c0-1-.3-1.7-.8-2.2s-1.4-.8-2.6-.8c-.9,0-1.7.2-2.4.6s-1.3,1.1-1.6,2.1h-4.9c0-1.5.5-2.8,1.3-3.7.8-1,1.9-1.7,3.3-2.2s2.9-.7,4.7-.7,3.9.3,5.2.8,2.2,1.3,2.8,2.3.9,2.2.9,3.5v14.8h-5l-.5-3.6c-.7,1.5-1.6,2.6-2.7,3.2s-2.4.9-3.8.9h0ZM201.6,191.2c.5,0,1,0,1.5-.3.5-.2,1-.5,1.4-.8s.7-.7,1-1.1c.2-.4.4-.9.4-1.3v-3.1h-2.1c-1,0-1.9.2-2.8.4-.9.2-1.5.6-2.1,1.1s-.8,1.2-.8,2,.3,1.7,1,2.3,1.5.8,2.5.8h0Z"/>
  <path class="st2" d="M216.3,194.7v-21h5.8v3c.3-.5.7-1,1.3-1.5s1.2-.9,2-1.2,1.7-.5,2.8-.5,2.5.2,3.6.7,2,1.3,2.7,2.4c.7,1.1,1,2.5,1,4.2v13.8h-5.9v-13.1c0-1.1-.3-2-1-2.6s-1.5-.9-2.5-.9-1.3.1-1.9.4-1.1.6-1.5,1c-.4.5-.6,1-.6,1.7v13.4h-5.9Z"/>
  <path class="st2" d="M248.3,195.1c-2.8,0-5-1-6.6-2.9s-2.4-4.6-2.4-8.1.3-4.1.9-5.7c.6-1.6,1.6-2.9,2.8-3.7s2.8-1.3,4.6-1.3,1.5,0,2.1.3,1.3.4,1.8.7,1,.6,1.4,1,.7.8,1,1.3v-12h6v30.2h-4.3l-.7-4.3c-.2.6-.5,1.1-.8,1.7s-.8,1.1-1.3,1.5-1.2.8-1.9,1.1c-.8.3-1.7.4-2.7.4h0ZM249.6,190.8c1.5,0,2.6-.5,3.3-1.6.7-1,1.1-2.8,1.1-5.3s-.2-2.6-.5-3.6-.8-1.7-1.5-2.1-1.5-.7-2.4-.7-2.4.5-3.2,1.5c-.9,1-1.3,2.6-1.3,4.9s.4,4.1,1.2,5.2c.8,1.1,1.9,1.7,3.2,1.7h0Z"/>
  <path class="st2" d="M286,195.1c-1.5,0-2.9-.2-4.3-.6-1.4-.4-2.7-.9-3.8-1.6-1.1-.7-2.1-1.6-2.8-2.7-.7-1.1-1.2-2.4-1.3-3.9h6.1c.2.9.6,1.6,1.2,2.2s1.3,1.1,2.2,1.4,2,.5,3.1.5,1.8-.1,2.7-.4c.8-.3,1.5-.7,2.1-1.2s.8-1.3.8-2.1-.4-1.8-1.1-2.3-1.7-.9-3-1.2l-5.5-1.2c-1.6-.3-2.9-.8-4.1-1.5-1.2-.7-2.1-1.6-2.7-2.7-.6-1.1-.9-2.4-.9-4s.5-3.4,1.5-4.7,2.4-2.3,4.1-3.1c1.7-.7,3.7-1.1,5.9-1.1s4.5.4,6.2,1.2c1.7.8,3,1.9,3.9,3.2.9,1.3,1.3,2.8,1.4,4.5h-5.9c-.1-1-.4-1.8-.9-2.4-.5-.6-1.2-1.1-2-1.3-.8-.3-1.7-.4-2.8-.4-1.8,0-3.1.4-3.9,1.1s-1.2,1.5-1.2,2.5.3,1.6.9,2.2,1.6,1,3,1.3l5.1,1.1c1.9.4,3.4.9,4.6,1.7,1.2.8,2,1.7,2.6,2.9.5,1.1.8,2.4.8,3.8s-.5,3.3-1.5,4.7-2.4,2.4-4.2,3.2-3.8,1.1-6.1,1.1h0Z"/>
  <path class="st2" d="M310.8,194.9c-1.9,0-3.3-.2-4.3-.7-1-.5-1.7-1.1-2.1-2-.4-.9-.6-1.8-.6-3v-11.4h-3.4v-4.1h3.6l1.5-6.3h4.2v6.3h4.7v4.1h-4.7v11.2c0,.5.1.9.2,1.1.1.2.3.4.6.5s.6.1,1.1.1h2.8v3.7c-.3.1-.7.2-1.3.4-.6.1-1.4.2-2.4.2h0Z"/>
  <path class="st2" d="M326.2,195.1c-1,0-1.9-.2-2.9-.4-.9-.3-1.8-.7-2.6-1.3-.8-.6-1.4-1.3-1.9-2.2s-.7-1.8-.7-3v-14.5h5.9v13.8c0,1,.3,1.8.9,2.4.6.6,1.6.9,2.8.9s2.1-.3,2.8-.9,1-1.4,1-2.5v-13.7h5.9v21h-4.5l-.7-4.2c-.2,1.2-.7,2.2-1.4,2.8s-1.4,1.1-2.3,1.4c-.9.2-1.7.4-2.5.4h0Z"/>
  <path class="st2" d="M350.5,195.1c-2.8,0-5-1-6.6-2.9s-2.4-4.6-2.4-8.1.3-4.1.9-5.7c.6-1.6,1.6-2.9,2.8-3.7s2.8-1.3,4.6-1.3,1.5,0,2.1.3,1.3.4,1.8.7,1,.6,1.4,1,.7.8,1,1.3v-12h6v30.2h-4.3l-.7-4.3c-.2.6-.5,1.1-.8,1.7s-.8,1.1-1.3,1.5-1.2.8-1.9,1.1c-.8.3-1.7.4-2.7.4h0ZM351.8,190.8c1.5,0,2.6-.5,3.3-1.6.7-1,1.1-2.8,1.1-5.3s-.2-2.6-.5-3.6-.8-1.7-1.5-2.1-1.5-.7-2.4-.7-2.4.5-3.2,1.5c-.9,1-1.3,2.6-1.3,4.9s.4,4.1,1.2,5.2c.8,1.1,1.9,1.7,3.2,1.7h0Z"/>
  <path class="st2" d="M367.4,170.7v-5.3h5.8v5.3h-5.8ZM367.5,194.7v-21h5.7v21h-5.7Z"/>
  <path class="st2" d="M387.4,195.1c-2.1,0-3.8-.4-5.4-1.3s-2.7-2.1-3.5-3.7c-.8-1.6-1.3-3.5-1.3-5.7s.4-4.1,1.3-5.8,2-2.9,3.5-3.9c1.5-.9,3.3-1.4,5.4-1.4s3.9.4,5.4,1.3c1.5.9,2.7,2.2,3.5,3.8s1.2,3.6,1.2,5.8-.4,4-1.2,5.6c-.8,1.6-2,2.9-3.5,3.8s-3.3,1.4-5.5,1.4h0ZM387.4,190.7c1,0,1.9-.3,2.5-.9.6-.6,1.1-1.4,1.4-2.4.3-1,.4-2.1.4-3.3s-.1-2.2-.4-3.2c-.3-1-.7-1.8-1.3-2.4-.6-.6-1.5-.9-2.6-.9s-1.9.3-2.5.9c-.6.6-1.1,1.3-1.4,2.3-.3,1-.4,2.1-.4,3.3s.1,2.1.4,3.2.7,1.8,1.4,2.5,1.5.9,2.6.9h0Z"/>
  <path class="st2" d="M402.6,174.9v-8.8h-3.2v-1.9h8.6v1.9h-3.2v8.8h-2.2,0Z"/>
  <path class="st2" d="M409.4,174.9v-10.7h3.1l2.4,7.6,2.5-7.6h3.1v10.7h-2.2v-8.2l-2.6,8.2h-1.7l-2.6-8.2v8.2h-2.2,0Z"/>
</svg>