<?xml version="1.0" encoding="UTF-8"?><svg id="Layer_1" xmlns="http://www.w3.org/2000/svg" viewBox="0 0 450 190"><defs><style>.cls-1{fill:#231f20;}.cls-2{fill:#010101;}.cls-2,.cls-3{fill-rule:evenodd;}.cls-4,.cls-3{fill:#ef4237;}</style></defs><path class="cls-2" d="M273.21,116.28v-17.47c0-.21.17-.37.37-.37h5.45c.18,0,.32-.14.32-.32v-5.71c0-.18-.14-.32-.32-.32h-5.44c-.21,0-.37-.17-.37-.37v-8.03c0-.18-.14-.32-.32-.32h-5.69c-.18,0-.32.14-.32.32v34.33c0,2.74,2.24,4.97,4.97,4.97h7.17c.18,0,.32-.14.32-.32v-5.69c0-.18-.14-.32-.32-.32h-5.45c-.21,0-.37-.17-.37-.37h0Z"/><path class="cls-2" d="M150.7,108.62c-.09-.52-.13-1.06-.13-1.59s.04-1.06.13-1.59c.77-4.64,4.8-8.03,9.49-8.03,2.56,0,4.99,1.01,6.8,2.82l.73.73c.12.12.33.12.45,0l4.02-4.02c.12-.12.12-.33,0-.45l-.73-.73c-3-3-7.04-4.67-11.28-4.67-8.04,0-14.84,6-15.83,13.98-.08.66-.12,1.32-.12,1.98s.04,1.32.12,1.98c.99,7.98,7.79,13.97,15.83,13.97,4.24,0,8.28-1.67,11.28-4.67l.73-.73c.12-.12.12-.33,0-.45l-4.02-4.02c-.12-.12-.33-.12-.45,0l-.73.73c-1.81,1.81-4.24,2.82-6.8,2.82-4.7,0-8.72-3.4-9.49-8.03h0Z"/><path class="cls-2" d="M309.64,113.26l-9.33-20.98c-.05-.12-.16-.19-.29-.19h-6.26c-.12,0-.21.05-.27.15-.06.1-.07.2-.02.31l13.55,30.26c.05.12.16.19.29.19h5.33c.13,0,.24-.07.29-.19l13.72-30.26c.05-.11.04-.21-.02-.31-.06-.1-.15-.15-.27-.15h-6.26c-.13,0-.24.07-.29.19l-9.47,20.99c-.06.14-.19.22-.34.22-.15,0-.28-.08-.34-.22h0Z"/><path class="cls-2" d="M176.18,122.66c0,.18.14.32.32.32h5.69c.18,0,.32-.14.32-.32v-14.42c0-.1,0-.21,0-.31,0-.53.04-1.06.13-1.59.77-4.64,4.8-8.03,9.49-8.03h1.03c.18,0,.32-.14.32-.32v-5.69c0-.18-.14-.32-.32-.32h-1.03c-8.04,0-14.84,5.99-15.83,13.98-.08.65-.12,1.31-.12,1.97,0,.1,0,.2,0,.3v14.43h0Z"/><path class="cls-2" d="M283.64,92.09c-.18,0-.32.14-.32.32v30.26c0,.18.14.32.32.32h5.69c.18,0,.32-.14.32-.32v-30.26c0-.18-.14-.32-.32-.32h-5.69ZM286.49,81.53c-2.08,0-3.77,1.69-3.77,3.77s1.69,3.77,3.77,3.77,3.77-1.69,3.77-3.77-1.69-3.77-3.77-3.77h0Z"/><path class="cls-2" d="M245.05,91.21c-7.98.99-13.97,7.79-13.97,15.83s5.99,14.84,13.97,15.83c.66.08,1.32.12,1.98.12s1.32-.04,1.98-.12c1.43-.18,2.83-.54,4.15-1.1.13-.05.2-.16.2-.3v-6.51c0-.13-.06-.23-.18-.29-.11-.06-.23-.05-.34.03-1.24.94-2.69,1.57-4.22,1.82-.52.09-1.06.13-1.59.13s-1.06-.04-1.59-.13l-.13-.02c-4.57-.82-7.9-4.83-7.9-9.47s3.4-8.72,8.03-9.49c.52-.09,1.06-.13,1.59-.13s1.06.04,1.59.13l.13.02c4.58.82,7.91,4.83,7.91,9.47v15.13c0,.18.14.32.32.32h5.69c.18,0,.32-.14.32-.32v-15.13c0-8.04-5.99-14.84-13.97-15.83-.66-.08-1.32-.12-1.98-.12s-1.32.04-1.98.12h0Z"/><path class="cls-2" d="M348.74,113.84c-1.05,1.05-2.3,1.83-3.67,2.3-.03.01-.06.02-.09.03-.96.32-1.98.49-3.04.49-2.22,0-4.33-.77-6-2.1-1.25-1-2.26-2.31-2.9-3.84,0-.01,0-.03-.01-.04-.46-1.12-.71-2.35-.71-3.64s.25-2.52.71-3.64c0-.01,0-.02.01-.04.63-1.53,1.63-2.83,2.87-3.83,0,0,0,0,0,0,1.65-1.32,3.74-2.12,6.02-2.12s4.34.78,6.02,2.12c1.24.99,2.24,2.3,2.88,3.83,0,.01,0,.02.01.04.06.16.13.32.18.48h-15.37c-.34.99-.53,2.05-.53,3.16s.19,2.17.53,3.16h21.68c.16,0,.3-.12.32-.28l.11-.91c.08-.66.12-1.32.12-1.98s-.04-1.32-.12-1.98c-.99-7.98-7.79-13.98-15.83-13.98s-14.84,6-15.83,13.98c-.08.66-.12,1.32-.12,1.98s.04,1.32.12,1.98c.99,7.98,7.79,13.98,15.83,13.98,4.24,0,8.28-1.67,11.28-4.67l.73-.73c.12-.12.12-.33,0-.45l-4.02-4.02c-.12-.12-.33-.12-.45,0l-.73.73h0Z"/><path class="cls-2" d="M218.09,113.84c-1.05,1.05-2.3,1.83-3.67,2.3-.03.01-.06.02-.09.03-.96.32-1.98.49-3.04.49-2.22,0-4.33-.77-6-2.1-1.25-1-2.26-2.31-2.9-3.84,0-.01,0-.03-.01-.04-.46-1.12-.71-2.35-.71-3.64s.25-2.52.71-3.64c0-.01,0-.02.01-.04.63-1.53,1.63-2.83,2.87-3.83,0,0,0,0,0,0,1.65-1.32,3.74-2.12,6.02-2.12s4.34.78,6.02,2.12c1.24.99,2.24,2.3,2.88,3.83,0,.01,0,.02.01.04.06.16.13.32.18.48h-15.37c-.34.99-.53,2.05-.53,3.16s.19,2.17.53,3.16h21.68c.16,0,.3-.12.32-.28l.11-.91c.08-.66.12-1.32.12-1.98s-.04-1.32-.12-1.98c-.99-7.98-7.79-13.98-15.83-13.98s-14.84,6-15.83,13.98c-.08.66-.12,1.32-.12,1.98s.04,1.32.12,1.98c.99,7.98,7.79,13.98,15.83,13.98,4.24,0,8.28-1.67,11.28-4.67l.73-.73c.12-.12.12-.33,0-.45l-4.02-4.02c-.12-.12-.33-.12-.45,0l-.73.73h0Z"/><path class="cls-2" d="M279.37,68.91v-22.85c0-.27.22-.49.49-.49h7.12c.23,0,.42-.19.42-.42v-7.47c0-.23-.19-.42-.42-.42h-7.12c-.27,0-.49-.22-.49-.49v-11.35c0-.23-.19-.42-.42-.42h-7.44c-.23,0-.42.19-.42.42v45.75c0,3.58,2.92,6.5,6.5,6.5h9.38c.23,0,.42-.19.42-.42v-7.44c0-.23-.19-.42-.42-.42h-7.12c-.27,0-.49-.22-.49-.49h0Z"/><path class="cls-2" d="M410.51,69.1v-22.85c0-.27.22-.49.49-.49h7.12c.23,0,.42-.19.42-.42v-7.47c0-.23-.19-.42-.42-.42h-7.12c-.27,0-.49-.22-.49-.49v-11.35c0-.23-.19-.42-.42-.42h-7.44c-.23,0-.42.19-.42.42v45.75c0,3.58,2.92,6.5,6.5,6.5h9.38c.23,0,.42-.19.42-.42v-7.44c0-.23-.19-.42-.42-.42h-7.12c-.27,0-.49-.22-.49-.49h0Z"/><path class="cls-2" d="M369.68,59.08c-.11-.69-.17-1.38-.17-2.07s.06-1.39.17-2.08c1.01-6.06,6.27-10.51,12.41-10.51,3.35,0,6.53,1.32,8.9,3.68l.96.96c.16.16.43.16.59,0l5.26-5.26c.16-.16.16-.43,0-.59l-.96-.96c-3.92-3.92-9.2-6.11-14.75-6.11-10.51,0-19.41,7.84-20.7,18.28-.11.86-.16,1.72-.16,2.58s.05,1.73.16,2.58c1.29,10.44,10.19,18.27,20.7,18.27,5.55,0,10.83-2.19,14.75-6.11l.96-.96c.16-.16.16-.43,0-.59l-5.26-5.26c-.16-.16-.43-.16-.59,0l-.96.96c-2.37,2.37-5.55,3.68-8.9,3.68-6.14,0-11.41-4.45-12.41-10.51h0Z"/><path class="cls-2" d="M243.37,48.32c-.07-.31-.06-.63,0-.94.22-1.03,1.04-1.68,2.09-1.68h20.86c.23,0,.42-.19.42-.42v-7.47c0-.23-.19-.42-.42-.42h-20.86c-3.82,0-7.42,2.37-9.24,5.68-.44.8-.78,1.66-.97,2.56-.22,1.04-.33,2.1-.27,3.16.15,2.5,1.22,4.51,2.94,6.29.92.95,2.02,1.72,3.23,2.27l17.82,8.06c.62.28,1.07.79,1.21,1.46.07.31.06.63,0,.94-.22,1.03-1.04,1.68-2.09,1.68h-20.91c-.23,0-.42.19-.42.42v7.47c0,.23.19.42.42.42h20.91c3.82,0,7.42-2.37,9.24-5.68.44-.8.78-1.66.97-2.56.22-1.04.33-2.1.27-3.16-.15-2.5-1.22-4.51-2.94-6.29-.92-.95-2.02-1.72-3.23-2.27l-17.82-8.06c-.62-.28-1.07-.79-1.21-1.46h0Z"/><path class="cls-2" d="M291.71,77.45c0,.23.19.42.42.42h7.44c.23,0,.42-.19.42-.42v-18.85c0-.14,0-.27,0-.41,0-.7.06-1.39.17-2.08,1-6.06,6.27-10.51,12.41-10.51h1.35c.23,0,.42-.19.42-.42v-7.44c0-.23-.19-.42-.42-.42h-1.35c-10.51,0-19.41,7.84-20.7,18.28-.11.86-.16,1.72-.16,2.58,0,.13,0,.26,0,.39v18.87h0Z"/><path class="cls-2" d="M208.53,36.31c-1.87.23-3.7.71-5.43,1.43-.16.07-.26.21-.26.39v8.51c0,.17.08.3.23.38.15.07.31.06.44-.04,1.62-1.23,3.51-2.05,5.52-2.38.69-.11,1.38-.17,2.08-.17s1.39.06,2.08.17l.16.03c5.99,1.07,10.34,6.31,10.34,12.38s-4.45,11.41-10.51,12.41c-.69.11-1.38.17-2.08.17s-1.39-.06-2.08-.17l-.17-.03c-5.98-1.07-10.33-6.31-10.33-12.38v-31.58c0-.23-.19-.42-.42-.42h-7.44c-.23,0-.42.19-.42.42v31.58c0,10.51,7.84,19.41,18.28,20.7.86.11,1.72.16,2.58.16s1.73-.05,2.58-.16c10.44-1.29,18.28-10.19,18.28-20.7s-7.84-19.41-18.28-20.7c-.86-.11-1.72-.16-2.58-.16s-1.73.05-2.58.16h0Z"/><path class="cls-2" d="M162.52,36.31c-10.44,1.29-18.28,10.19-18.28,20.7s7.84,19.41,18.28,20.7c.86.11,1.72.16,2.58.16s1.73-.05,2.58-.16c1.87-.23,3.7-.71,5.43-1.43.16-.07.26-.21.26-.39v-8.51c0-.17-.08-.3-.23-.38-.15-.07-.31-.06-.44.04-1.62,1.23-3.51,2.05-5.52,2.38-.69.11-1.38.17-2.08.17s-1.39-.06-2.08-.17l-.17-.03c-5.98-1.07-10.33-6.31-10.33-12.38s4.45-11.41,10.51-12.41c.69-.11,1.38-.17,2.08-.17s1.39.06,2.08.17l.16.03c5.99,1.07,10.34,6.31,10.34,12.38v19.79c0,.23.19.42.42.42h7.44c.23,0,.42-.19.42-.42v-19.79c0-10.51-7.84-19.41-18.28-20.7-.86-.11-1.72-.16-2.58-.16s-1.73.05-2.58.16h0Z"/><path class="cls-2" d="M333.48,36.31c-10.44,1.29-18.28,10.19-18.28,20.7s7.84,19.41,18.28,20.7c.86.11,1.72.16,2.58.16s1.73-.05,2.58-.16c1.87-.23,3.7-.71,5.43-1.43.16-.07.26-.21.26-.39v-8.51c0-.17-.08-.3-.23-.38-.15-.07-.31-.06-.44.04-1.62,1.23-3.51,2.05-5.52,2.38-.69.11-1.38.17-2.08.17s-1.39-.06-2.08-.17l-.17-.03c-5.98-1.07-10.33-6.31-10.33-12.38s4.45-11.41,10.51-12.41c.69-.11,1.38-.17,2.08-.17s1.39.06,2.08.17l.16.03c5.99,1.07,10.34,6.31,10.34,12.38v19.79c0,.23.19.42.42.42h7.44c.23,0,.42-.19.42-.42v-19.79c0-10.51-7.84-19.41-18.28-20.7-.86-.11-1.72-.16-2.58-.16s-1.73.05-2.58.16h0Z"/><path class="cls-3" d="M77.41,92.07c-4.27,0-8.48.28-12.61.81l12.61-41.86,10.62,35.25c8.88.91,17.6,2.94,25.94,6.07l-20.26-67.27h-32.59l-22.61,75.06c-3.44,1.49-6.78,3.17-10,5.03l11.68,20.23c10.95-6.34,23.67-9.96,37.23-9.96s26.28,3.63,37.23,9.96l11.67-20.23c-14.38-8.33-31.08-13.09-48.9-13.09Z"/><path class="cls-4" d="M149.37,171.59v-19.18h5.16v19.18h-5.16Z"/><path class="cls-4" d="M166.62,171.86c-1.85,0-3.46-.44-4.83-1.31-1.37-.88-2.44-2.07-3.2-3.59s-1.14-3.25-1.14-5.2.38-3.64,1.13-5.07c.75-1.44,1.82-2.55,3.19-3.34,1.38-.79,3-1.19,4.86-1.19,1.52,0,2.88.3,4.08.89,1.2.6,2.17,1.42,2.92,2.48s1.18,2.27,1.33,3.65h-5.38c-.1-.59-.28-1.11-.54-1.54-.27-.43-.61-.77-1.04-1-.43-.23-.94-.35-1.53-.35-.65,0-1.22.17-1.72.5s-.9.91-1.19,1.72-.43,1.92-.43,3.32c0,2.13.31,3.64.94,4.54.63.9,1.43,1.35,2.4,1.35.59,0,1.1-.15,1.53-.45.43-.3.78-.7,1.04-1.2.27-.5.45-1.04.54-1.64h5.38c-.13.99-.36,1.93-.67,2.83-.31.89-.78,1.69-1.39,2.38s-1.43,1.24-2.45,1.63c-1.02.39-2.29.59-3.82.59Z"/><path class="cls-4" d="M186.51,171.86c-1.9,0-3.55-.41-4.94-1.21-1.39-.81-2.47-1.95-3.23-3.42-.76-1.47-1.14-3.2-1.14-5.18s.39-3.74,1.16-5.22c.77-1.48,1.86-2.63,3.26-3.45s3.03-1.23,4.89-1.23,3.48.41,4.87,1.23c1.39.82,2.47,1.97,3.24,3.45.77,1.48,1.15,3.22,1.15,5.22s-.38,3.71-1.13,5.18c-.76,1.47-1.83,2.61-3.22,3.42s-3.02,1.21-4.91,1.21ZM186.51,167.72c.71,0,1.34-.18,1.89-.54s.99-.95,1.3-1.76c.31-.82.47-1.92.47-3.3s-.16-2.56-.47-3.41c-.31-.85-.75-1.47-1.3-1.85-.55-.38-1.18-.57-1.89-.57s-1.34.19-1.89.57c-.55.38-.99,1-1.31,1.85-.32.85-.48,1.99-.48,3.41s.16,2.48.48,3.3.75,1.41,1.31,1.76,1.18.54,1.89.54Z"/><path class="cls-4" d="M198.69,171.59v-19.18h5.2l7.48,10.69v-10.69h5.16v19.18h-4.65l-8.02-11.43v11.43h-5.16Z"/><path class="cls-1" d="M226.44,171.59v-19.18h6.95c2.51,0,4.37.43,5.59,1.29,1.22.86,1.82,2.11,1.82,3.73,0,.96-.24,1.78-.73,2.49s-1.35,1.32-2.6,1.84c.8.2,1.45.48,1.95.82s.88.73,1.14,1.15c.26.42.45.86.54,1.31.1.46.15.9.15,1.35,0,1.77-.6,3.08-1.8,3.92s-3.12,1.27-5.74,1.27h-7.27ZM230.3,160.34h3.7c.4,0,.78-.05,1.15-.14.37-.09.69-.24.98-.43.29-.19.51-.44.68-.75.17-.31.25-.67.25-1.08,0-.83-.31-1.46-.93-1.89-.62-.43-1.42-.64-2.39-.64h-3.43v4.93ZM230.3,168.59h3.49c1.17,0,2.05-.23,2.65-.7.6-.47.89-1.1.89-1.88,0-.57-.15-1.04-.44-1.43-.29-.38-.69-.67-1.19-.87-.5-.19-1.07-.29-1.7-.29h-3.7v5.17Z"/><path class="cls-1" d="M244.1,171.59v-13.71h3.73v3.25c.22-.7.53-1.31.94-1.84.4-.53.89-.94,1.46-1.23.57-.3,1.22-.44,1.95-.44.12,0,.24,0,.35.02.11.01.19.03.25.06v3.69c-.08-.04-.17-.06-.29-.07s-.21-.02-.3-.03c-.76-.06-1.41-.04-1.95.07-.54.11-.98.29-1.31.54-.34.26-.58.57-.73.94-.15.37-.22.79-.22,1.25v7.51h-3.87Z"/><path class="cls-1" d="M258.81,171.86c-.87,0-1.65-.16-2.35-.49s-1.26-.8-1.66-1.43c-.41-.62-.61-1.38-.61-2.27,0-1.5.56-2.65,1.68-3.43,1.12-.78,2.89-1.19,5.32-1.21l1.72-.03v-.82c0-.63-.18-1.11-.55-1.45-.37-.34-.94-.51-1.72-.5-.56,0-1.09.14-1.6.4-.51.26-.86.7-1.05,1.34h-3.22c.05-.99.34-1.8.87-2.45.53-.64,1.24-1.12,2.13-1.43.89-.31,1.91-.47,3.06-.47,1.4,0,2.52.17,3.37.52.85.35,1.47.85,1.85,1.5.38.65.58,1.42.58,2.31v9.64h-3.24l-.32-2.36c-.47.99-1.05,1.68-1.76,2.06s-1.54.57-2.5.57ZM260.12,169.31c.34,0,.68-.06,1.01-.19.33-.13.63-.3.9-.52s.48-.46.63-.74c.15-.27.24-.56.25-.85v-2.03l-1.39.03c-.65,0-1.25.09-1.8.23-.56.15-1.01.38-1.35.71-.34.33-.51.77-.51,1.33,0,.64.22,1.13.66,1.49.44.36.97.54,1.61.54Z"/><path class="cls-1" d="M269.76,171.59v-13.71h3.81v1.94c.21-.34.49-.66.83-.97.34-.31.77-.57,1.29-.78s1.14-.3,1.86-.3c.84,0,1.62.16,2.35.49s1.32.84,1.77,1.54c.45.7.68,1.62.68,2.75v9.04h-3.87v-8.57c0-.74-.22-1.3-.66-1.67s-.98-.56-1.62-.56c-.42,0-.83.08-1.23.23s-.71.38-.96.68c-.25.3-.37.67-.37,1.11v8.78h-3.87Z"/><path class="cls-1" d="M290.68,171.86c-1.84,0-3.27-.63-4.3-1.9s-1.54-3.03-1.54-5.3c0-1.43.21-2.67.62-3.73.42-1.05,1.03-1.87,1.84-2.45s1.81-.87,2.98-.87c.5,0,.96.06,1.39.17s.82.26,1.17.46.66.42.93.68c.27.26.48.53.65.82v-7.85h3.89v19.71h-2.81l-.44-2.81c-.13.38-.31.75-.52,1.11s-.5.69-.84.99c-.34.3-.77.53-1.27.71-.5.18-1.08.27-1.76.27ZM291.53,169.07c.97,0,1.7-.34,2.18-1.02.48-.68.72-1.83.72-3.45,0-.94-.12-1.71-.33-2.33-.21-.62-.53-1.08-.95-1.39-.42-.31-.95-.46-1.6-.46-.84,0-1.54.32-2.09.96-.56.64-.84,1.71-.84,3.22s.26,2.66.78,3.38c.52.73,1.23,1.09,2.12,1.09Z"/><path class="cls-1" d="M315.29,171.86c-.96,0-1.89-.12-2.8-.36-.91-.24-1.74-.6-2.49-1.07-.75-.48-1.37-1.07-1.85-1.79-.48-.72-.77-1.56-.87-2.52h3.96c.13.58.39,1.07.76,1.47s.86.7,1.46.92,1.28.32,2.05.32c.61,0,1.19-.09,1.74-.27.55-.18.99-.45,1.34-.81s.52-.82.52-1.37c0-.65-.24-1.15-.72-1.48-.48-.33-1.13-.59-1.95-.79l-3.59-.78c-1.02-.21-1.9-.54-2.66-.99-.76-.45-1.34-1.03-1.74-1.75-.41-.72-.61-1.6-.61-2.63,0-1.19.33-2.22.99-3.09.66-.87,1.56-1.53,2.69-2,1.14-.46,2.41-.7,3.83-.7,1.6,0,2.95.26,4.05.78,1.1.52,1.94,1.22,2.53,2.1.58.88.88,1.86.89,2.94h-3.87c-.07-.66-.27-1.2-.61-1.6-.34-.4-.77-.69-1.29-.88-.53-.18-1.12-.27-1.8-.27-1.16,0-2,.23-2.53.7-.53.47-.8,1.01-.8,1.63,0,.58.2,1.05.6,1.41s1.05.63,1.94.82l3.33.72c1.24.24,2.24.62,3.01,1.13.77.52,1.33,1.14,1.68,1.88.35.73.53,1.56.53,2.47,0,1.16-.33,2.18-.99,3.06-.66.88-1.57,1.57-2.72,2.06s-2.49.74-4,.74Z"/><path class="cls-1" d="M331.49,171.74c-1.21,0-2.15-.15-2.8-.46-.66-.31-1.11-.74-1.37-1.3-.25-.56-.38-1.2-.38-1.94v-7.47h-2.23v-2.69h2.35l.98-4.14h2.76v4.12h3.05v2.71h-3.05l.03,7.31c0,.34.04.59.13.75.08.16.22.27.4.32.18.05.41.07.7.07h1.84v2.39c-.19.08-.46.15-.84.23-.37.07-.89.11-1.56.11Z"/><path class="cls-1" d="M341.55,171.86c-.64,0-1.26-.1-1.88-.29-.62-.19-1.17-.48-1.68-.86-.5-.38-.91-.85-1.21-1.41-.3-.56-.46-1.2-.46-1.94v-9.48h3.87v8.99c0,.64.21,1.16.62,1.56.42.41,1.03.61,1.83.61.76,0,1.36-.2,1.81-.59.45-.39.67-.94.67-1.65v-8.92h3.83v13.71h-2.92l-.45-2.72c-.16.8-.46,1.42-.9,1.85s-.94.72-1.5.89c-.56.16-1.11.25-1.65.25Z"/><path class="cls-1" d="M357.46,171.86c-1.84,0-3.27-.63-4.3-1.9s-1.54-3.03-1.54-5.3c0-1.43.21-2.67.62-3.73.42-1.05,1.03-1.87,1.84-2.45s1.81-.87,2.98-.87c.5,0,.96.06,1.39.17s.82.26,1.17.46.66.42.93.68c.27.26.48.53.65.82v-7.85h3.89v19.71h-2.81l-.44-2.81c-.13.38-.31.75-.52,1.11s-.5.69-.84.99c-.34.3-.77.53-1.27.71-.5.18-1.08.27-1.76.27ZM358.31,169.07c.97,0,1.7-.34,2.18-1.02.48-.68.72-1.83.72-3.45,0-.94-.12-1.71-.33-2.33-.21-.62-.53-1.08-.95-1.39-.42-.31-.95-.46-1.6-.46-.84,0-1.54.32-2.09.96-.56.64-.84,1.71-.84,3.22s.26,2.66.78,3.38c.52.73,1.23,1.09,2.12,1.09Z"/><path class="cls-1" d="M368.49,155.91v-3.49h3.77v3.49h-3.77ZM368.53,171.59v-13.71h3.7v13.71h-3.7Z"/><path class="cls-1" d="M381.55,171.86c-1.34,0-2.51-.29-3.51-.86-1-.57-1.76-1.39-2.31-2.44-.54-1.05-.82-2.3-.82-3.74s.27-2.7.82-3.78,1.31-1.92,2.31-2.52c.99-.6,2.17-.9,3.52-.9s2.52.29,3.51.88c.99.59,1.75,1.42,2.29,2.5.54,1.08.81,2.35.81,3.82,0,1.38-.26,2.6-.79,3.65-.53,1.06-1.28,1.89-2.27,2.49-.99.6-2.18.9-3.57.9ZM381.57,168.98c.68,0,1.23-.2,1.64-.6.42-.4.72-.92.9-1.57.19-.65.28-1.36.28-2.13,0-.72-.08-1.41-.25-2.06-.17-.64-.46-1.17-.88-1.56-.42-.4-.98-.6-1.7-.6s-1.23.19-1.65.56c-.42.38-.73.88-.92,1.53-.19.64-.29,1.35-.29,2.13,0,.72.09,1.4.27,2.06.18.66.47,1.2.89,1.61s.99.62,1.71.62Z"/><path class="cls-1" d="M391.48,158.68v-5.74h-2.12v-1.26h5.6v1.26h-2.07v5.74h-1.42Z"/><path class="cls-1" d="M395.93,158.68v-7h2.05l1.6,4.99,1.62-4.99h2.05v7h-1.43v-5.36l-1.69,5.36h-1.11l-1.68-5.33v5.33h-1.42Z"/></svg>