<?xml version="1.0" encoding="UTF-8"?>
<svg id="Layer_1" xmlns="http://www.w3.org/2000/svg" version="1.1" viewBox="0 0 497.5 150">
  <!-- Generator: Adobe Illustrator 29.6.1, SVG Export Plug-In . SVG Version: 2.1.1 Build 9)  -->
  <defs>
    <style>
      .st0 {
        fill: #fff;
      }

      .st1 {
        fill: #ee4137;
      }
    </style>
  </defs>
  <g>
    <path class="st0" d="M149.3,117.8h2l5.2,14h-1.9l-1.5-4.3h-5.6l-1.5,4.3h-1.8l5.2-14h0ZM148,126.2h4.6l-1.6-4.7c-.3-.8-.6-2-.6-2h0s-.4,1.2-.6,2l-1.7,4.7h0Z"/>
    <path class="st0" d="M159.4,123.1h0c.7-1,1.7-1.6,3.2-1.6s3.4,1.2,3.4,3.3v7.1h-1.6v-7c0-1.3-.9-2.1-2.3-2.1s-2.8,1.1-2.8,2.8v6.2h-1.6v-10.2h1.6v1.5Z"/>
    <path class="st0" d="M175.2,117.8h2.9l4.9,14h-3l-.9-3h-5.1l-.9,3h-2.9l4.9-14h.1ZM174.7,126.7h3.7l-1.3-4c-.2-.7-.6-2.2-.6-2.2h0s-.4,1.4-.6,2.2l-1.3,4h.1Z"/>
    <path class="st0" d="M186.6,130.6h0v1.3h-2.6v-14h2.7v5.2h0c.5-.8,1.4-1.5,2.8-1.5,2.5,0,4.3,2.2,4.3,5.3s-1.7,5.3-4.3,5.3-2.4-.6-3-1.6h.1ZM191.2,126.8c0-1.9-.7-3.2-2.2-3.2s-2.3,1.4-2.3,3.2.9,3,2.4,3,2.1-1.1,2.1-3.1h0Z"/>
    <path class="st0" d="M194.5,128.6h2.5c.2,1.2,1,1.7,2.2,1.7s1.8-.5,1.8-1.2-1.3-1.1-2.7-1.3c-1.8-.4-3.6-.8-3.6-3s1.8-3.2,4.1-3.2,4.1,1.3,4.3,3.3h-2.4c-.1-1.1-.8-1.5-1.9-1.5s-1.7.4-1.7,1.1,1.3.9,2.8,1.2c1.7.4,3.6.8,3.6,3.2s-1.7,3.2-4.2,3.2-4.6-1.4-4.7-3.6h-.1Z"/>
    <path class="st0" d="M203.9,121.8h1.4v-3.1h2.6v3.1h1.7v1.8h-1.7v5.3c0,.7.4,1,1,1h.8v2h-1.7c-1.1,0-2.7-.5-2.7-2.4v-5.9h-1.4v-1.8h0Z"/>
    <path class="st0" d="M213.6,123.4h0c.6-1.1,1.3-1.7,2.5-1.7s.5,0,.6,0v2.3h0c-1.7-.2-3,.7-3,2.9v4.9h-2.7v-10.1h2.6v1.6h0Z"/>
    <path class="st0" d="M223.6,130.8h0c-.5.8-1.2,1.4-3,1.4s-3.5-1.1-3.5-3.1,1.8-2.9,4-3.2c1.7-.2,2.4-.4,2.4-1.1s-.6-1.2-1.7-1.2-1.9.5-1.9,1.4h-2.4c0-1.8,1.4-3.3,4.3-3.3s4.2,1.4,4.2,3.7v5.1c0,.8.1,1.2.4,1.4h-2.6c-.2-.2-.3-.7-.3-1.1h.1ZM223.6,128.3v-1.5c-.5.3-1.2.4-1.9.6-1.4.3-2.1.6-2.1,1.6s.6,1.3,1.6,1.3c1.5,0,2.4-.9,2.4-1.9h0Z"/>
    <path class="st0" d="M227.3,126.8c0-3,2-5.3,5-5.3s4.2,1.5,4.6,3.7h-2.6c-.2-.9-.9-1.6-1.8-1.6-1.6,0-2.4,1.2-2.4,3.2s.8,3.2,2.4,3.2,1.8-.6,2-1.7h2.6c-.2,2.1-1.8,3.8-4.5,3.8s-5.2-2.3-5.2-5.3h-.1Z"/>
    <path class="st0" d="M237.6,121.8h1.4v-3.1h2.6v3.1h1.7v1.8h-1.7v5.3c0,.7.4,1,1,1h.8v2h-1.7c-1.1,0-2.7-.5-2.7-2.4v-5.9h-1.4v-1.8h0Z"/>
    <path class="st0" d="M247.6,124.9c0-4.2,2.6-7.3,6.7-7.3s5.5,2.1,5.8,4.7h-2.8c-.3-1.4-1.3-2.3-3-2.3-2.6,0-3.8,2.2-3.8,4.9s1.5,4.9,3.8,4.9,2.8-1,3-2.5h2.8c0,1.2-.6,2.4-1.6,3.3-1,.9-2.3,1.5-4.3,1.5-3.9,0-6.8-3-6.8-7.3h.2Z"/>
    <path class="st0" d="M264,123.4h0c.6-1.1,1.3-1.7,2.5-1.7s.5,0,.6,0v2.3h0c-1.7-.2-3,.7-3,2.9v4.9h-2.7v-10.1h2.6v1.6h0Z"/>
    <path class="st0" d="M267.6,126.8c0-3,2-5.3,5-5.3s5,2.5,5,6.1h-7.3c.2,1.6,1.1,2.5,2.6,2.5s1.6-.5,1.9-1.2h2.6c-.4,1.8-2,3.3-4.6,3.3s-5.2-2.3-5.2-5.3h0ZM270.2,125.7h4.5c0-1.3-.9-2.2-2.1-2.2s-2.1.8-2.3,2.2h-.1Z"/>
    <path class="st0" d="M284.8,130.8h0c-.5.8-1.2,1.4-3,1.4s-3.5-1.1-3.5-3.1,1.8-2.9,4-3.2c1.7-.2,2.4-.4,2.4-1.1s-.6-1.2-1.7-1.2-1.9.5-1.9,1.4h-2.4c0-1.8,1.4-3.3,4.3-3.3s4.2,1.4,4.2,3.7v5.1c0,.8.1,1.2.4,1.4h-2.6c-.2-.2-.3-.7-.3-1.1h.1ZM284.8,128.3v-1.5c-.5.3-1.2.4-1.9.6-1.4.3-2.1.6-2.1,1.6s.6,1.3,1.6,1.3c1.5,0,2.4-.9,2.4-1.9h0Z"/>
    <path class="st0" d="M288.2,121.8h1.4v-3.1h2.6v3.1h1.7v1.8h-1.7v5.3c0,.7.4,1,1,1h.8v2h-1.7c-1.1,0-2.7-.5-2.7-2.4v-5.9h-1.4v-1.8h0Z"/>
    <path class="st0" d="M295.3,117.8h2.7v2.4h-2.7v-2.4ZM295.3,121.8h2.7v10.1h-2.7v-10.1Z"/>
    <path class="st0" d="M298.9,121.8h2.7l1.6,5.2c.3,1,.5,1.6.5,1.6h0s.1-.6.4-1.6l1.7-5.2h2.7l-3.5,10.1h-2.6l-3.5-10.1h0Z"/>
    <path class="st0" d="M308.6,126.8c0-3,2-5.3,5-5.3s5,2.5,5,6.1h-7.3c.2,1.6,1.1,2.5,2.6,2.5s1.6-.5,1.9-1.2h2.6c-.4,1.8-2,3.3-4.6,3.3s-5.2-2.3-5.2-5.3h0ZM311.2,125.7h4.5c0-1.3-.9-2.2-2.1-2.2s-2.1.8-2.3,2.2h-.1Z"/>
    <path class="st0" d="M322.4,127.1h1.7c.2,2.4,1.7,3.6,4.3,3.6s3.3-.9,3.3-2.6-1.7-2.4-4.2-2.9-4.6-1.3-4.6-3.9,1.9-3.7,4.8-3.7,5,1.8,5.3,4.4h-1.7c-.3-2-1.6-3-3.6-3s-3.2.8-3.2,2.3,1.6,2.1,3.7,2.5c2.7.5,5.2,1.2,5.2,4.4s-2.1,4.1-5.2,4.1-5.8-2.2-6-5l.2-.2Z"/>
    <path class="st0" d="M334.8,126.8c0-2.9,1.9-5.3,4.8-5.3s4.7,2.4,4.7,5.7h-7.9c.1,2.1,1.2,3.6,3.3,3.6s2.5-.7,2.8-2.1h1.6c-.5,2.2-2.1,3.4-4.4,3.4s-4.9-2.4-4.9-5.3h0ZM336.5,126h6.1c0-2-1.1-3.3-3-3.3s-2.9,1.4-3.1,3.3Z"/>
    <path class="st0" d="M347.4,123.4h0c.6-1,1.7-1.8,3-1.8s.5,0,.6,0v1.5h-.7c-1.6,0-2.9,1.2-2.9,3.1v5.6h-1.6v-10.2h1.6v1.7Z"/>
    <path class="st0" d="M351.6,121.7h1.7l2.1,6.4c.3.9.7,2.1.7,2.1h0s.4-1.3.7-2.1l2.1-6.4h1.6l-3.7,10.2h-1.8l-3.6-10.2h.2Z"/>
    <path class="st0" d="M361.6,117.8h1.6v2h-1.6v-2ZM361.6,121.7h1.6v10.2h-1.6v-10.2Z"/>
    <path class="st0" d="M364.8,126.8c0-2.9,1.9-5.3,4.9-5.3s4,1.4,4.3,3.5h-1.6c-.2-1.4-1.2-2.2-2.7-2.2s-3.3,1.8-3.3,4,1.1,4,3.3,4,2.6-.9,2.8-2.5h1.6c-.2,2.4-1.8,3.8-4.3,3.8s-4.9-2.4-4.9-5.3h0Z"/>
    <path class="st0" d="M375,126.8c0-2.9,1.9-5.3,4.8-5.3s4.7,2.4,4.7,5.7h-7.9c.1,2.1,1.2,3.6,3.3,3.6s2.5-.7,2.8-2.1h1.6c-.5,2.2-2.1,3.4-4.4,3.4s-4.9-2.4-4.9-5.3h0ZM376.7,126h6.1c0-2-1.1-3.3-3-3.3s-2.9,1.4-3.1,3.3Z"/>
  </g>
  <g>
    <path class="st1" d="M144,32.7h9.1v31h-9.1v-31Z"/>
    <path class="st1" d="M155.5,48.3c0-9.3,6.4-16.2,15.7-16.2s6.4.9,8.7,2.4c3.2,2.2,5.1,5.7,5.5,9.6h-9.1c-.2-2.4-2.3-4.6-5.2-4.6-4.3,0-6.4,3.6-6.4,8.7s2.4,8.7,6.5,8.7,5.1-2.1,5.4-4.9h9.1c-.3,3.4-1.8,6.5-4,8.6-2.6,2.6-5.9,3.7-10.4,3.7-9.4,0-15.7-6.8-15.7-16.1h-.1Z"/>
    <path class="st1" d="M186.7,48.3c0-9.3,6.1-16.2,15.7-16.2s15.8,6.9,15.8,16.2-6.2,16.1-15.8,16.1-15.7-6.8-15.7-16.1ZM209,48.3c0-5.1-2.2-8.9-6.5-8.9s-6.5,3.9-6.5,8.9,2.2,8.9,6.5,8.9,6.5-3.8,6.5-8.9Z"/>
    <path class="st1" d="M220.7,32.7h9.1l10.1,17.4h0v-17.4h8.8v31h-9.4l-9.8-17.5h0v17.5h-8.8v-31h0Z"/>
    <path class="st0" d="M144,71.1h16c3,0,5.3.7,6.9,2,1.9,1.4,2.9,3.6,2.9,6.1s-1.3,4.8-3.9,5.9h0c3.4,1.2,5.3,4.1,5.3,7.6s-1.3,5.8-3.6,7.4c-1.9,1.3-4.3,1.9-7.5,1.9h-16.3v-31h.2ZM158.5,83.1c1.7,0,2.9-.8,2.9-2.5s-1.2-2.6-2.9-2.6h-5.6v5h5.6ZM159.3,94.9c1.9,0,3.3-1.2,3.3-3s-1.5-3-3.3-3h-6.4v6h6.5-.1Z"/>
    <path class="st0" d="M173.7,71.1h15.4c6.3,0,11.7,2.9,11.7,9.2s-1.8,6.1-5.1,7.5h0c2.5,1.1,3.8,2.8,4.3,5.2.8,3.7.1,8.2,1.3,8.5v.5h-8.9c-.9-.6-.5-4.4-1.2-7.2-.6-2.4-1.6-3.6-4.2-3.6h-4.2v10.8h-9.1v-31h0ZM182.7,84.8h4.9c2.6,0,4-1.1,4-3.3s-1.3-3.3-3.9-3.3h-5v6.6Z"/>
    <path class="st0" d="M213.4,71.1h9.2l11.5,31h-9.6l-1.5-4.5h-10.5l-1.5,4.5h-9l11.4-31h0ZM214.5,91.2h6.4l-1.9-6.1c-.5-1.5-1.2-4-1.2-4h0s-.6,2.5-1.2,4l-2,6.1h-.1Z"/>
    <path class="st0" d="M235.8,71.1h9.1l10.1,17.4h0v-17.4h8.8v31h-9.4l-9.8-17.5h0v17.5h-8.8v-31h0Z"/>
    <path class="st0" d="M267.6,71.1h14.3c8.9,0,15.1,5.7,15.1,15.6s-5.9,15.4-15.5,15.4h-13.9v-31ZM280.7,94.5c4.2,0,7.1-2.7,7.1-7.9s-2.7-8.1-7.1-8.1h-4.1v16h4.1Z"/>
    <path class="st0" d="M304.3,92.1h9.3c.3,2.5,2.2,3.6,5.2,3.6s3.9-.7,3.9-2.6-2.1-2.3-5.9-3.3c-5.2-1.3-11.5-3.1-11.5-9.7s5.8-9.8,12.8-9.8,12.3,2.7,12.4,9.4h-9c-.3-1.7-1.5-2.8-3.9-2.8s-3.4.9-3.4,2.2,2.6,2.1,7.3,3.2c5.2,1.3,10.4,3.3,10.4,9.9s-6,10.4-13.3,10.4-14.2-3.5-14.3-10.6h0Z"/>
    <path class="st0" d="M332.4,71.1h26.7v7.7h-8.9v23.3h-9.1v-23.3h-8.8v-7.7h0Z"/>
    <path class="st0" d="M361.4,90.2v-19.1h9.1v19.7c0,2.9,1.6,4.6,4.9,4.6s4.6-2,4.6-4.8v-19.5h9.1v19.1c0,7.6-4.5,12.4-13.8,12.4s-13.8-4.6-13.8-12.4h-.1Z"/>
    <path class="st0" d="M392.5,71.1h14.3c8.9,0,15.1,5.7,15.1,15.6s-5.9,15.4-15.5,15.4h-13.9v-31ZM405.7,94.5c4.2,0,7.1-2.7,7.1-7.9s-2.7-8.1-7.1-8.1h-4.1v16h4.1Z"/>
    <path class="st0" d="M424.4,71.1h9.1v31h-9.1v-31Z"/>
    <path class="st0" d="M436,86.6c0-9.3,6.1-16.2,15.7-16.2s15.8,6.9,15.8,16.2-6.2,16.1-15.8,16.1-15.7-6.8-15.7-16.1ZM458.3,86.6c0-5.1-2.2-8.9-6.5-8.9s-6.5,3.9-6.5,8.9,2.2,8.9,6.5,8.9,6.5-3.8,6.5-8.9Z"/>
    <path class="st0" d="M467.1,71.5h5.1v1h-2v5.2h-1.2v-5.2h-2v-1h.1ZM473.2,71.5h1.7l1.3,4.7h0l1.4-4.7h1.8v6.2h-1.1v-4.8h0s-.3,1-.5,1.8l-.9,3h-1.2l-.9-3c-.2-.7-.5-1.8-.5-1.8h0v4.8h-1.1v-6.2h0Z"/>
  </g>
  <path class="st1" d="M37.9,61c5.2-5.9,11.7-10.7,18.8-13.9,7.2-3.2,14.8-4.9,22.8-4.9s11.1,1.8,15.6,5.3,7.7,8.3,9.1,13.7c.3,1.2,1,2.2,2.1,2.8.7.4,1.5.6,2.3.6s.8,0,1.1,0c2.4-.6,3.9-3.1,3.3-5.5-1.9-7.4-6.3-14-12.3-18.7-6.1-4.7-13.4-7.2-21.1-7.2s-18.2,1.9-26.5,5.7c-8.3,3.7-15.8,9.3-21.9,16.2-.8.9-1.2,2.1-1.1,3.3,0,1.2.6,2.3,1.5,3.1,1.9,1.7,4.8,1.5,6.4-.4h0ZM34.5,42.3c1,0,1.9-.3,2.7-.9h0c.4-.3.8-.6,1.2-.9.3-.2.7-.5,1.2-.8,2.1-1.4,2.6-4.3,1.2-6.3-1.4-2.1-4.3-2.6-6.3-1.2-.4.3-.8.6-1.4,1-.4.3-.9.6-1.3,1-2,1.5-2.4,4.4-.9,6.4.9,1.2,2.3,1.8,3.7,1.8h-.1ZM49.1,32.6c.6.2,1.2.3,1.7.3s1.2,0,1.8-.4c4.2-1.8,8.7-3.1,13.2-4,4.5-.9,9.1-1.3,13.8-1.3s4.9.2,7.2.6c2.3.4,4.7,1.1,6.9,1.9,2.4.9,5-.3,5.9-2.7.4-1.1.4-2.4,0-3.5s-1.4-2-2.6-2.4c-2.7-1-5.6-1.8-8.5-2.3s-5.9-.8-8.8-.8c-5.2,0-10.4.5-15.5,1.5s-10.1,2.5-14.9,4.5c-1.1.5-2,1.3-2.5,2.5-.5,1.1-.5,2.4,0,3.5s1.3,2,2.5,2.5h0ZM109.7,70.8c-1.2-.3-2.4,0-3.5.5-1,.6-1.8,1.6-2.1,2.8-1.4,5.4-4.6,10.3-9.1,13.7-4.5,3.5-9.9,5.3-15.6,5.3s-4.6,2.1-4.6,4.6,2.1,4.6,4.6,4.6c7.7,0,15-2.5,21.1-7.2,6-4.7,10.4-11.3,12.3-18.7.3-1.2,0-2.4-.5-3.5-.6-1-1.6-1.8-2.8-2.1h.2ZM34.6,99.3c2.4,0,4.4-1.9,4.6-4.3.2-3.7,1-7.4,2.2-10.9,1.3-3.5,3-6.8,5.1-9.9.7-1,1-2.2.8-3.4s-.9-2.3-1.9-3c-2.1-1.5-4.9-1-6.4,1.1-2.7,3.7-4.8,7.8-6.3,12.1-1.5,4.3-2.4,8.8-2.7,13.4,0,1.2.3,2.4,1.1,3.3.8.9,1.9,1.5,3.1,1.5h.4ZM41,109.8c-.2-.5-.3-1-.4-1.4-.3-1.2-1.1-2.2-2.1-2.8-1.1-.6-2.3-.7-3.5-.4-2.4.7-3.9,3.2-3.2,5.6.2.7.3,1.2.5,1.6.2.5.4,1.1.5,1.6.7,1.9,2.4,3,4.3,3s1,0,1.5-.3c2.4-.8,3.6-3.5,2.8-5.8-.2-.4-.3-.9-.4-1.3v.2ZM124.4,46.6c-3.1-6.6-7.7-12.5-13.3-17.1-1.9-1.6-4.8-1.3-6.4.6s-1.3,4.8.6,6.4c4.6,3.8,8.3,8.6,10.8,13.9,2.5,5.4,3.8,11.2,3.8,17.2,0,10.8-4.2,20.9-11.8,28.6s-17.8,11.8-28.6,11.8-5.4-1.1-7.4-3.1-3.1-4.6-3.1-7.4,1.1-5.4,3.1-7.4,4.6-3.1,7.4-3.1c5.2,0,10.1-2,13.8-5.7,3.7-3.7,5.7-8.6,5.7-13.8s-2-10.1-5.7-13.8-8.6-5.7-13.8-5.7-10.2.8-15.1,2.3c-4.9,1.6-9.5,3.9-13.6,6.8-1,.7-1.7,1.8-1.9,3s0,2.4.8,3.4c1.5,2.1,4.3,2.5,6.4,1.1,3.4-2.4,7.2-4.3,11.1-5.6s8.1-1.9,12.3-1.9,5.4,1.1,7.4,3.1,3.1,4.6,3.1,7.4-1.1,5.4-3.1,7.4-4.6,3.1-7.4,3.1c-5.2,0-10.1,2-13.8,5.7-3.7,3.7-5.7,8.6-5.7,13.8s2,10.1,5.7,13.8c3.7,3.7,8.6,5.7,13.8,5.7,13.2,0,25.7-5.2,35.1-14.5,9.4-9.4,14.5-21.8,14.5-35s-1.6-14.4-4.7-21.1h0ZM55,104.3c-.6-2.1-.9-4.3-.9-6.6,0-6.8,2.6-13.2,7.4-18s11.2-7.4,18-7.4,4.6-2.1,4.6-4.6-2.1-4.6-4.6-4.6c-9.2,0-17.9,3.6-24.4,10.1s-10.1,15.2-10.1,24.4.4,6,1.2,9c.8,2.9,1.9,5.7,3.5,8.3.6,1.1,1.6,1.8,2.8,2.1.4,0,.8.2,1.2.2.8,0,1.6-.2,2.3-.6,1.1-.6,1.8-1.6,2.1-2.8.3-1.2,0-2.4-.5-3.5-1.1-1.9-2-4-2.5-6.1h0Z"/>
</svg>